<?xml version="1.0" encoding="UTF-8"?><svg id="Layer_1" xmlns="http://www.w3.org/2000/svg" viewBox="0 0 512 512"><defs><style>.cls-1{fill:none;stroke:#fff;stroke-miterlimit:10;stroke-width:62.36px;}</style></defs><line class="cls-1" x1="302.42" y1="86" x2="194.21" y2="194.21"/><line class="cls-1" x1="209.58" y1="426" x2="317.79" y2="317.79"/><line class="cls-1" x1="426" y1="302.42" x2="317.79" y2="194.21"/><path class="cls-1" d="m317.79,194.21l-108.21-108.21c-34.13-34.13-89.46-34.13-123.58,0-34.13,34.13-34.13,89.46,0,123.58"/><line class="cls-1" x1="86" y1="209.58" x2="194.21" y2="317.79"/><path class="cls-1" d="m194.21,317.79l108.21,108.21c34.13,34.13,89.46,34.13,123.58,0,34.13-34.13,34.13-89.46,0-123.58"/><path class="cls-1" d="m317.79,317.79l108.21-108.21c34.13-34.13,34.13-89.46,0-123.58-34.13-34.13-89.46-34.13-123.58,0"/><path class="cls-1" d="m194.21,194.21l-108.21,108.21c-34.13,34.13-34.13,89.46,0,123.58,34.13,34.13,89.46,34.13,123.58,0"/></svg>