<?xml version="1.0" encoding="UTF-8"?><svg id="Layer_1" xmlns="http://www.w3.org/2000/svg" viewBox="0 0 512 512"><defs><style>.cls-1{fill:#53220f;}.cls-1,.cls-2{stroke-width:0px;}.cls-2{fill:#fff;}</style></defs><rect class="cls-2" width="512" height="512"/><path class="cls-1" d="m256,133.12c32.82,0,63.68,12.78,86.89,35.99,23.21,23.21,35.99,54.07,35.99,86.89s-12.78,63.68-35.99,86.89c-23.21,23.21-54.07,35.99-86.89,35.99s-63.68-12.78-86.89-35.99c-23.21-23.21-35.99-54.07-35.99-86.89s12.78-63.68,35.99-86.89c23.21-23.21,54.07-35.99,86.89-35.99m0-81.92c-113.11,0-204.8,91.69-204.8,204.8s91.69,204.8,204.8,204.8,204.8-91.69,204.8-204.8S369.11,51.2,256,51.2h0Z"/></svg>